<svg width="157" height="157" viewBox="0 0 157 157" fill="none" xmlns="http://www.w3.org/2000/svg">
<circle cx="78.5" cy="78.5" r="78.5" fill="#0B996E"/>
<path d="M107.526 68.8511C112.546 63.8306 114.9 58.0256 114.9 50.9597C114.9 36.3745 104.388 26.6414 88.5418 26.6414H49.6268V130.359H81.011C104.864 130.359 122.75 115.454 122.75 95.6796C122.75 84.8541 117.259 75.1268 107.531 68.8453L107.526 68.8511ZM63.7471 40.1341H86.9671C94.8116 40.1341 99.9891 44.684 99.9891 51.5872C99.9891 59.4318 93.2427 65.3937 79.4363 69.9436C70.0228 72.9245 65.7867 75.4348 64.2178 78.4157H63.7471V40.1341ZM79.75 116.866H63.7471V100.863C63.7471 93.8027 69.709 86.8995 78.03 84.2265C85.4039 81.7163 91.5227 79.206 96.7002 76.5388C103.603 80.6238 107.839 87.6781 107.839 95.0521C107.839 107.603 95.9157 116.86 79.75 116.86V116.866Z" fill="white"/>
</svg>
